<?xml version="1.0" standalone="no"?>
<!DOCTYPE svg PUBLIC "-//W3C//DTD SVG 20010904//EN"
 "http://www.w3.org/TR/2001/REC-SVG-20010904/DTD/svg10.dtd">
<svg version="1.0" xmlns="http://www.w3.org/2000/svg"
 width="512.000000pt" height="512.000000pt" viewBox="0 0 512.000000 512.000000"
 preserveAspectRatio="xMidYMid meet">
<metadata>
Created by potrace 1.14, written by Peter Selinger 2001-2017
</metadata>
<g transform="translate(0.000000,512.000000) scale(0.100000,-0.100000)"
fill="#000000" stroke="none">
<path d="M2590 4345 c-47 -9 -115 -20 -153 -25 -37 -5 -76 -14 -87 -20 -10 -5
-27 -10 -38 -10 -22 0 -119 -30 -172 -53 -117 -51 -140 -63 -148 -82 -10 -21
-76 -115 -152 -215 -25 -33 -67 -92 -95 -131 -75 -107 -141 -174 -218 -226
-39 -25 -85 -62 -104 -82 -30 -33 -34 -34 -48 -20 -14 14 -21 14 -53 3 -87
-31 -313 -8 -442 45 -41 17 -81 31 -88 31 -20 0 -52 -39 -52 -64 0 -15 -12
-34 -32 -51 -97 -79 -115 -97 -134 -137 -23 -46 -37 -96 -61 -218 -8 -41 -21
-106 -28 -145 -8 -38 -21 -104 -28 -145 -8 -41 -17 -82 -20 -90 -11 -29 -36
-347 -48 -610 -25 -572 2 -863 104 -1095 28 -63 151 -282 166 -295 10 -9 51
-69 51 -75 0 -3 15 -26 32 -49 18 -24 40 -54 48 -66 45 -67 180 -237 254 -319
46 -52 99 -118 118 -147 l33 -53 1733 -1 c1164 0 1732 3 1732 10 0 6 -4 18 -9
28 -4 9 -19 40 -32 67 -32 66 -143 205 -165 205 -2 0 -32 21 -67 48 -58 45
-221 132 -277 148 -14 3 -34 13 -45 20 -11 8 -31 14 -45 14 -14 0 -31 5 -37
11 -6 6 -29 15 -50 20 -21 4 -65 17 -98 29 -33 12 -82 28 -110 35 -27 7 -84
23 -125 34 -41 12 -108 28 -149 36 -98 20 -155 51 -159 88 -4 30 -14 34 -32
12 -7 -8 -23 -15 -35 -15 -12 0 -28 -7 -35 -15 -7 -8 -28 -15 -47 -15 -36 0
-54 -23 -34 -43 8 -8 14 -8 23 1 7 7 30 12 52 12 36 -1 38 -2 21 -12 -11 -6
-22 -14 -25 -18 -10 -13 -86 -49 -140 -65 -32 -10 -103 -20 -171 -23 -101 -4
-125 -2 -188 18 -103 31 -183 77 -261 148 -25 22 -80 31 -80 12 0 -6 -12 -16
-26 -22 -22 -10 -32 -8 -70 12 -24 14 -44 28 -44 32 0 5 -5 8 -11 8 -13 0
-112 58 -178 104 -98 70 -296 289 -401 446 -8 12 -23 33 -32 45 -10 13 -18 28
-18 33 0 5 -6 15 -14 21 -16 13 -95 173 -120 243 -14 37 -16 68 -12 150 3 57
9 207 13 333 5 139 13 238 20 250 10 17 12 13 18 -30 12 -100 39 -196 59 -219
19 -22 41 -30 73 -27 8 1 13 68 16 244 6 304 16 396 52 462 14 28 44 93 66
145 22 52 44 104 49 115 18 42 80 255 80 277 0 7 9 32 20 56 18 39 21 42 35
29 44 -45 275 -128 505 -182 218 -51 716 -68 1030 -35 169 18 345 27 362 18
11 -5 19 -26 23 -56 11 -80 65 -229 130 -364 15 -29 31 -75 36 -103 17 -83 25
-262 18 -410 -4 -77 -5 -145 -2 -151 2 -6 15 -17 27 -24 67 -35 107 66 146
367 5 40 13 81 19 91 41 77 58 561 26 734 -20 107 -61 230 -113 338 -125 258
-375 448 -717 545 -33 9 -82 23 -110 31 -186 53 -541 77 -705 49z m1 -3831 c9
-8 38 -14 66 -14 36 0 53 -4 57 -15 4 -12 25 -15 101 -15 62 0 94 -4 90 -10
-4 -6 -54 -10 -117 -10 -90 0 -115 3 -130 17 -17 15 -19 15 -36 0 -17 -15 -20
-15 -43 12 -14 16 -36 31 -49 33 -13 1 -25 8 -27 15 -6 16 66 5 88 -13z"/>
<path d="M2225 2942 c-99 -8 -236 -51 -284 -90 -32 -26 -33 -78 -2 -104 30
-23 38 -23 159 7 77 19 127 25 212 25 131 0 150 7 150 56 0 48 -13 70 -52 84
-37 14 -137 26 -183 22z"/>
<path d="M3315 2939 c-99 -9 -145 -39 -145 -95 0 -56 17 -64 143 -64 87 0 137
-6 224 -26 97 -23 116 -25 143 -14 36 15 47 48 28 87 -32 67 -241 127 -393
112z"/>
<path d="M2159 2603 c-58 -7 -133 -83 -154 -157 -16 -56 -16 -63 -1 -111 18
-58 77 -125 110 -125 67 0 205 65 229 106 5 8 12 12 18 9 15 -10 10 -52 -7
-59 -8 -3 -12 -11 -9 -16 8 -13 33 5 46 35 6 11 16 31 24 45 19 33 19 66 -1
128 -23 69 -94 142 -140 142 -12 0 -34 2 -50 4 -16 2 -45 1 -65 -1z m29 -66
c26 -27 20 -59 -13 -77 -51 -27 -94 25 -61 75 20 31 46 32 74 2z"/>
<path d="M3364 2601 c-59 -10 -105 -51 -140 -126 -30 -63 -30 -107 0 -171 28
-59 71 -94 116 -94 39 0 164 58 203 94 35 32 37 32 37 1 0 -29 18 -34 26 -7 3
9 12 29 20 44 8 14 14 35 14 45 0 30 -31 115 -51 141 -47 61 -133 89 -225 73z
m35 -65 c18 -19 21 -28 12 -43 -27 -51 -82 -55 -103 -8 -10 22 -8 29 12 50 29
31 50 32 79 1z"/>
<path d="M3560 2260 c0 -5 5 -10 10 -10 6 0 10 5 10 10 0 6 -4 10 -10 10 -5 0
-10 -4 -10 -10z"/>
<path d="M2373 1495 c-3 -9 -4 -17 -2 -19 2 -1 22 -16 44 -32 187 -142 555
-152 779 -20 57 34 83 63 68 78 -10 10 -20 9 -45 -1 -168 -69 -142 -65 -392
-65 -215 -1 -234 0 -297 22 -36 13 -72 30 -78 38 -17 19 -69 18 -77 -1z"/>
<path d="M2826 721 c-8 -12 44 -21 119 -21 73 0 125 9 125 21 0 12 -237 12
-244 0z"/>
</g>
</svg>
